<svg xmlns="http://www.w3.org/2000/svg" xmlns:xlink="http://www.w3.org/1999/xlink" viewBox="0 0 701.32 411.81"><defs><style>.cls-1{fill:#f2f2f2;}.cls-2{opacity:0.8;fill:url(#linear-gradient);}.cls-11,.cls-18,.cls-2,.cls-3,.cls-4,.cls-7{isolation:isolate;}.cls-3{fill:#ff9c75;}.cls-3,.cls-4{opacity:0.7;}.cls-4{fill:#ffba9f;}.cls-5{fill:#1a1a1a;}.cls-6{fill:gray;}.cls-11,.cls-18,.cls-7,.cls-9{fill:#fff;}.cls-7{opacity:0.46;}.cls-8{opacity:0.27;}.cls-10{fill:#ed1c24;}.cls-11{opacity:0.8;}.cls-12{fill:#cd1c24;}.cls-13{fill:#333;}.cls-14{fill:#c1272d;}.cls-15{fill:#a60007;}.cls-16{fill:#999;}.cls-17{fill:#e6e6e6;}.cls-18{opacity:0.7;}.cls-19{fill:#ffd899;}.cls-20{fill:url(#linear-gradient-2);}.cls-21{fill:#b3b3b3;}.cls-22{fill:url(#linear-gradient-3);}.cls-23{fill:url(#linear-gradient-4);}.cls-24{fill:url(#linear-gradient-5);}.cls-25{fill:url(#linear-gradient-6);}.cls-26{fill:url(#linear-gradient-7);}.cls-27{fill:url(#linear-gradient-8);}.cls-28{fill:#ffcd7d;}.cls-29{fill:#94272d;}.cls-30{fill:#9c272d;}</style><linearGradient id="linear-gradient" x1="165.2" y1="88.66" x2="292.71" y2="88.66" gradientTransform="matrix(0.97, -0.26, -0.26, -0.97, 36.63, 358.86)" gradientUnits="userSpaceOnUse"><stop offset="0" stop-color="#ff928e"/><stop offset="1" stop-color="#fe7062"/></linearGradient><linearGradient id="linear-gradient-2" x1="71.9" y1="55.45" x2="147.61" y2="55.45" gradientTransform="matrix(1, 0, 0, -1, 0, 329.9)" gradientUnits="userSpaceOnUse"><stop offset="0" stop-color="#dae3fe"/><stop offset="1" stop-color="#e9effd"/></linearGradient><linearGradient id="linear-gradient-3" x1="218.46" y1="-31.42" x2="219.14" y2="-106.83" gradientTransform="matrix(1, -0.02, -0.02, -1, -168.9, 313.42)" gradientUnits="userSpaceOnUse"><stop offset="0" stop-color="#020039"/><stop offset="1" stop-color="#090056"/></linearGradient><linearGradient id="linear-gradient-4" x1="260.06" y1="-62.19" x2="185.5" y2="-120.74" gradientTransform="matrix(1, -0.02, -0.02, -1, -168.9, 313.42)" gradientUnits="userSpaceOnUse"><stop offset="0" stop-color="#4f52ff"/><stop offset="1" stop-color="#4042e2"/></linearGradient><linearGradient id="linear-gradient-5" x1="214.47" y1="-63.03" x2="210.55" y2="-97.2" gradientTransform="matrix(1, -0.02, -0.02, -1, -168.9, 313.42)" gradientUnits="userSpaceOnUse"><stop offset="0" stop-color="#febbba"/><stop offset="1" stop-color="#ff928e"/></linearGradient><linearGradient id="linear-gradient-6" x1="273.3" y1="-79.06" x2="198.74" y2="-137.6" xlink:href="#linear-gradient-4"/><linearGradient id="linear-gradient-7" x1="254.16" y1="-31.1" x2="254.85" y2="-106.5" xlink:href="#linear-gradient-3"/><linearGradient id="linear-gradient-8" x1="246.36" y1="-66.69" x2="242.44" y2="-100.85" xlink:href="#linear-gradient-5"/></defs><g id="Layer_2" data-name="Layer 2"><g id="Layer_1-2" data-name="Layer 1"><path class="cls-1" d="M61.74,359.78c10.55,8.79,17,17.17,25.88,20.15C202,418.1,297.86,407.52,321.14,403.77c34.4-5.53,100.89-16.22,149-61,72.72-67.79,61.41-174.58,5-245.07-10.33-12.9-64.83-84.47-175.61-95.95C232.43-5.23,154.27,8.78,97.67,46.36-21.13,125.24-18.14,293.13,61.74,359.78Z"/><path class="cls-2" d="M284.36,326.61c28.33-15,37.69-66,21.39-82.43-11-11.09-26.59.78-41.8-10.69-19.41-14.65-5.42-42.61-20.87-78.64-13.14-30.65-44.34-59.51-62.39-53.41-18.91,6.4-28.53,52.85-12.14,80.63,10.66,18.06,26.77,18.84,30.4,35.69,4.2,19.55-15.33,28.63-15.29,47.62C183.73,299.49,246.86,346.51,284.36,326.61Z"/><path class="cls-1" d="M269.1,339.76a1.13,1.13,0,0,0,.51-.12,1.15,1.15,0,0,0,.52-1.55h0c-38.28-77.44-50-167.51-50.15-168.41a1.15,1.15,0,0,0-1.32-1,1.16,1.16,0,0,0-1,1.27c.12.9,11.91,91.36,50.37,169.13A1.16,1.16,0,0,0,269.1,339.76Z"/><path class="cls-1" d="M190.62,193.26a.61.61,0,0,0,.34-.12.55.55,0,0,0,.1-.77h0c-12-15.19-25.39-38.05-20.8-60.68,2.73-13.47,10.64-20.55,10.72-20.62a.55.55,0,1,0-.73-.83c-.34.29-8.27,7.39-11.07,21.23-2.58,12.72-1,33.74,21,61.59A.58.58,0,0,0,190.62,193.26Z"/><path class="cls-3" d="M340.76,300.08c32.61-8.92,54-59.17,41-79.82-8.76-13.95-27.52-5.34-40.51-20.64-16.58-19.55,4.26-45.08-3.3-85.67-6.45-34.57-31.86-71.45-51.83-69.34-20.91,2.21-41.54,47.75-31.11,80.1,6.79,21,23.19,25.56,23,43.72-.19,21.08-22.37,25.92-26.71,45.44C243.56,249,297.62,311.89,340.76,300.08Z"/><path class="cls-1" d="M322,310.09a1.28,1.28,0,0,0,.55,0,1.24,1.24,0,0,0,.9-1.48h0c-21.51-88.47-12.79-183.8-12.7-184.75a1.22,1.22,0,0,0-2.42-.35.49.49,0,0,0,0,.12c-.09,1-8.85,96.69,12.75,185.55A1.22,1.22,0,0,0,322,310.09Z"/><path class="cls-1" d="M275.28,141.21a.47.47,0,0,1-.42-.26c-7.15-14.86-11.14-28.69-11.87-41.1-.58-10,.92-19,4.47-27,6.06-13.54,16.13-19.16,16.24-19.22a.47.47,0,0,1,.63.19.47.47,0,0,1-.19.63h0c-.1.05-9.94,5.55-15.86,18.84-5.47,12.28-8.63,33.91,7.42,67.24a.48.48,0,0,1-.22.62A.45.45,0,0,1,275.28,141.21Z"/><path class="cls-4" d="M396,314.73c40.1.13,80.47-50.54,72.18-78.25-5.59-18.73-29.77-14.82-39.76-36.43-12.76-27.59,19.15-50.17,23.36-99C455.34,59.52,438,9.31,414.47,5.4c-24.6-4.1-62.6,41.42-60.92,81.71,1.09,26.2,18.41,36.56,12.46,57.27-6.9,24-33.79,22.54-44.93,43.48C301.06,225.5,342.93,314.56,396,314.73Z"/><path class="cls-1" d="M371.41,320.23a1.27,1.27,0,0,0,.63.17,1.44,1.44,0,0,0,1.49-1.39h0c3.44-107.94,43.61-214.15,44-215.21a1.45,1.45,0,1,0-2.65-1.16.61.61,0,0,0-.05.12c-.41,1.07-40.75,107.74-44.2,216.15A1.44,1.44,0,0,0,371.41,320.23Z"/><path class="cls-1" d="M371.46,112.37a.54.54,0,0,1-.4-.42c-3.47-19.26-3.65-36.33-.55-50.75,2.49-11.56,7.08-21.46,13.66-29.41C395.38,18.22,408.68,15,408.81,15a.55.55,0,0,1,.66.42.56.56,0,0,1-.41.66h0c-.13,0-13.12,3.2-24.1,16.52-10.14,12.3-20.6,36-12.82,79.21a.55.55,0,0,1-.44.63A.39.39,0,0,1,371.46,112.37Z"/><path class="cls-5" d="M464.26,386.84c.08,7.78,6.76,14.1,14.94,14.1l197.63.43c8.23,0,15.07-6.29,15.28-14.1l9.2-368.09A15.3,15.3,0,0,0,686.51,3.4h-.64l-209.78,1a15.66,15.66,0,0,0-15.55,15.76v.1Z"/><path class="cls-6" d="M482.07,41.51A15.33,15.33,0,0,1,497.49,26.2L664,25.47A15,15,0,0,1,679.26,40.7l-6.84,313c-.17,7.66-6.95,13.85-15.14,13.84l-158.19-.25c-8.14,0-14.79-6.21-14.84-13.85Z"/><path class="cls-7" d="M555.65,14.29a2.92,2.92,0,0,0,2.9,2.94h0l43.33-.2a3,3,0,0,0,3-3h0a2.9,2.9,0,0,0-2.85-2.94H602l-43.39.21a3,3,0,0,0-2.94,3Z"/><g class="cls-8"><polygon class="cls-9" points="517.65 263.5 492.69 238.72 493.62 291 517.6 263.56 517.65 263.5"/><path class="cls-9" d="M529.7,275.47l-35.27,40.4-.36.41,1,32a11.39,11.39,0,0,0,4.32,8.23,15.06,15.06,0,0,0,8.39,3.35l49.85-56.63Z"/><polygon class="cls-9" points="500.13 222.56 528.62 250.97 540.64 262.95 568.58 290.81 614.53 238.63 614.52 238.63 586.68 210.41 586.76 210.4 586.92 210.32 586.92 210.32 574.78 198.17 574.67 198.18 574.64 198.19 574.62 198.18 574.6 198.17 546.09 169.3 489.28 111.84 491.43 206.09 500.13 222.56"/><polygon class="cls-9" points="529.78 359.92 614.81 359.98 569.49 314.98 529.78 359.92"/><path class="cls-9" d="M580.43,302.61,638,360h5.26a14.83,14.83,0,0,0,9.45-3.31,11,11,0,0,0,4.17-8L659.28,284l-32.9-33.36Z"/><polygon class="cls-9" points="637.46 238.02 660.06 261.05 661.9 210.38 637.48 238.02 637.46 238.02"/><path class="cls-9" d="M545.12,144l45.69-53.13-48.14-49.8-39.73-.26a14.58,14.58,0,0,0-14.86,15l.76,30.9Z"/><polygon class="cls-9" points="633.14 41.69 567.04 41.26 602.14 77.73 633.14 41.69"/><polygon class="cls-9" points="602.95 103.47 557.27 156.4 585.74 185.38 597.73 197.57 625.2 225.95 662.02 183.6 662.02 183.59 663.23 166.24 663.33 166.14 602.95 103.47"/><path class="cls-9" d="M655.88,42.14,614.29,90.35l50.21,52.14,3.18-85.22A14.85,14.85,0,0,0,655.88,42.14Z"/></g><rect class="cls-9" x="580.07" y="57.29" width="77.1" height="4.65" rx="2.32"/><rect class="cls-9" x="580.07" y="69.92" width="77.1" height="4.65" rx="2.32"/><rect class="cls-9" x="580.07" y="82.54" width="77.1" height="4.65" rx="2.32"/><path class="cls-9" d="M516,365.5a1.73,1.73,0,0,1-1.74-1.73,1.75,1.75,0,0,1,.45-1.17l3.34-3.68a1.74,1.74,0,0,1,2.57,2.35h0l-3.34,3.66A1.74,1.74,0,0,1,516,365.5Zm8.33-9.19A1.74,1.74,0,0,1,523,353.4l3.33-3.67a1.74,1.74,0,0,1,2.58,2.33l-3.33,3.68a1.8,1.8,0,0,1-1.3.57Zm8.33-9.2a1.74,1.74,0,0,1-1.28-2.91l3.33-3.68a1.74,1.74,0,0,1,2.58,2.34l-3.34,3.68A1.74,1.74,0,0,1,532.65,347.11Zm8.34-9.2a1.73,1.73,0,0,1-1.74-1.73,1.77,1.77,0,0,1,.45-1.18l3.33-3.67a1.74,1.74,0,0,1,2.58,2.33l-3.33,3.68a1.77,1.77,0,0,1-1.29.58Zm8.33-9.19a1.76,1.76,0,0,1-1.74-1.75,1.72,1.72,0,0,1,.45-1.16l3.34-3.68a1.74,1.74,0,1,1,2.57,2.34l-3.33,3.68a1.76,1.76,0,0,1-1.29.57Zm8.33-9.2a1.74,1.74,0,0,1-1.28-2.91l3.33-3.67a1.74,1.74,0,1,1,2.67,2.23l-.09.1L558.94,319a1.74,1.74,0,0,1-1.29.57Zm8.34-9.2a1.73,1.73,0,0,1-1.29-2.9l3.33-3.68a1.74,1.74,0,0,1,2.58,2.33h0l-3.34,3.68a1.71,1.71,0,0,1-1.28.58Zm8.33-9.19a1.74,1.74,0,0,1-1.29-2.91l3.33-3.68a1.74,1.74,0,0,1,2.58,2.34h0l-3.33,3.67a1.73,1.73,0,0,1-1.29.58Zm8.33-9.2a1.74,1.74,0,0,1-1.74-1.74,1.72,1.72,0,0,1,.45-1.16l3.34-3.68a1.73,1.73,0,0,1,2.46-.12,1.75,1.75,0,0,1,.11,2.47L584,291.37a1.76,1.76,0,0,1-1.3.57Zm8.33-9.2a1.73,1.73,0,0,1-1.28-2.9l3.33-3.68a1.73,1.73,0,0,1,2.57,2.33h0l-3.33,3.7a1.75,1.75,0,0,1-1.29.56Zm8.34-9.19a1.74,1.74,0,0,1-1.29-2.91l3.33-3.67a1.74,1.74,0,0,1,2.58,2.33L600.6,273a1.72,1.72,0,0,1-1.28.57Zm8.33-9.2a1.74,1.74,0,0,1-1.74-1.74,1.82,1.82,0,0,1,.45-1.16l3.34-3.68a1.74,1.74,0,1,1,2.57,2.35l-3.33,3.68a1.75,1.75,0,0,1-1.29.56Zm8.32-9.18a1.75,1.75,0,0,1-1.74-1.74,1.71,1.71,0,0,1,.46-1.17l3.34-3.68a1.74,1.74,0,0,1,2.58,2.33l-3.34,3.67A1.78,1.78,0,0,1,616,255.16Zm7.09-10a1.66,1.66,0,0,1-.32,0,1.74,1.74,0,0,1-1.39-2h0a8,8,0,0,0-.26-4,1.74,1.74,0,1,1,3.26-1.19.36.36,0,0,1,0,.11,11.61,11.61,0,0,1,.38,5.76,1.75,1.75,0,0,1-1.7,1.42Zm-4.7-10.83a1.75,1.75,0,0,1-1.25-.54l-3.44-3.58a1.74,1.74,0,0,1,2.51-2.41l3.44,3.59a1.73,1.73,0,0,1-.07,2.45,1.7,1.7,0,0,1-1.19.48Zm-8.59-9a1.72,1.72,0,0,1-1.26-.54l-3.41-3.58a1.74,1.74,0,1,1,2.42-2.5l.09.09,3.44,3.58a1.73,1.73,0,0,1-1.25,2.94Zm-8.6-8.95a1.72,1.72,0,0,1-1.25-.53l-3.42-3.59a1.73,1.73,0,0,1,2.5-2.4l3.44,3.57a1.74,1.74,0,0,1-.06,2.46,1.71,1.71,0,0,1-1.19.48Zm-8.58-9a1.75,1.75,0,0,1-1.25-.54l-3.44-3.58a1.74,1.74,0,0,1,2.51-2.41l3.43,3.59a1.73,1.73,0,0,1-1.25,2.93ZM584,198.56a1.72,1.72,0,0,1-1.26-.54l-3.44-3.58a1.74,1.74,0,0,1,2.51-2.4h0l3.44,3.58a1.73,1.73,0,0,1-1.25,2.93Zm-8.6-8.95a1.72,1.72,0,0,1-1.26-.54l-3.43-3.58a1.73,1.73,0,0,1,2.5-2.4l3.44,3.58a1.73,1.73,0,0,1-1.25,2.93Zm-8.6-9a1.69,1.69,0,0,1-1.25-.54l-3.44-3.57a1.74,1.74,0,0,1,.14-2.46,1.72,1.72,0,0,1,2.36,0l3.44,3.58a1.73,1.73,0,0,1-.06,2.46,1.81,1.81,0,0,1-1.19.48Zm-8.6-8.94a1.74,1.74,0,0,1-1.25-.53l-3.44-3.58A1.74,1.74,0,1,1,556,165.2l3.43,3.58a1.73,1.73,0,0,1-1.25,2.94Zm-8.6-8.95a1.74,1.74,0,0,1-1.25-.53l-3.44-3.58a1.74,1.74,0,0,1,2.51-2.41l3.44,3.58a1.75,1.75,0,0,1-.06,2.46,1.72,1.72,0,0,1-1.2.48Zm-8.59-9a1.76,1.76,0,0,1-1.26-.53l-3.43-3.58a1.74,1.74,0,1,1,2.42-2.5l.08.09,3.44,3.59a1.73,1.73,0,0,1-.06,2.46A1.75,1.75,0,0,1,541,153.8Zm-8.6-8.94a1.75,1.75,0,0,1-1.25-.54l-3.44-3.58a1.74,1.74,0,1,1,2.5-2.41l3.44,3.58a1.74,1.74,0,0,1-1.25,2.94Zm-8.6-9a1.79,1.79,0,0,1-1.25-.54l-3.44-3.58a1.74,1.74,0,0,1,2.51-2.41l3.44,3.58a1.75,1.75,0,0,1-.06,2.46,1.72,1.72,0,0,1-1.2.48Zm-8.56-9a1.77,1.77,0,0,1-1.36-.64A11.63,11.63,0,0,1,511.5,121a1.74,1.74,0,0,1,3.39-.77l0,.17a8.13,8.13,0,0,0,1.67,3.68,1.73,1.73,0,0,1-.26,2.44,1.71,1.71,0,0,1-1.09.39Zm-.59-11.59a1.74,1.74,0,0,1-1.74-1.74,1.69,1.69,0,0,1,.29-.95,11.54,11.54,0,0,1,.95-1.26l2.38-2.73a1.74,1.74,0,0,1,2.62,2.28l-2.38,2.73a8.16,8.16,0,0,0-.67.88,1.75,1.75,0,0,1-1.44.8Z"/><circle class="cls-10" cx="524.92" cy="34.96" r="26.94" transform="translate(129.03 381.41) rotate(-45)"/><path class="cls-10" d="M498,32.64h53.84S554,48,530,89a6,6,0,0,1-5,3.08,6.13,6.13,0,0,1-5-3.17C495.84,47.94,498,32.64,498,32.64Z"/><path class="cls-9" d="M519.3,89.92c-13.8-23.54-19.09-38.54-21-47a28.1,28.1,0,0,1-1.11-7.79V35a12.43,12.43,0,0,1,.05-1.49,27.73,27.73,0,0,1,55.33-.27l.07.43a13.7,13.7,0,0,1,0,2.94,26.65,26.65,0,0,1-.92,5.81c-1.84,8.47-7,23.58-21.05,47.52a6.62,6.62,0,0,1-5.71,3.23h.18v0A6.08,6.08,0,0,1,519.3,89.92Zm31.78-55.3,0-.74a26.16,26.16,0,0,0-52.23-.23v.05c0,.11,0,.53,0,1.31h0l-.28.11a36.45,36.45,0,0,0,.78,7.37v0c2,8.35,7.37,23.21,21.1,46.61a5.41,5.41,0,0,0,4.7,2.5v.79l-.09-.79a4.91,4.91,0,0,0,4.29-2.48c14-23.79,19.06-38.73,20.88-47.09v0a25.55,25.55,0,0,0,.88-5.5v0c.07-.88.08-1.9.07-1.9Z"/><circle class="cls-11" cx="524.83" cy="34.87" r="15.56"/><path class="cls-12" d="M508.41,34.87a16.43,16.43,0,1,1,16.42,16.42h0A16.44,16.44,0,0,1,508.41,34.87Zm1.74,0a14.69,14.69,0,1,0,14.68-14.69A14.68,14.68,0,0,0,510.15,34.87Z"/><path class="cls-9" d="M539.59,18.67a.26.26,0,0,0,.26-.26.25.25,0,0,0-.09-.2A24.1,24.1,0,0,0,524,12.39a.26.26,0,1,0,0,.52h0a23.59,23.59,0,0,1,15.38,5.7A.27.27,0,0,0,539.59,18.67Z"/><path class="cls-9" d="M547.92,36.8a.26.26,0,0,0,.26-.26h0a24.07,24.07,0,0,0-3.59-12.71.27.27,0,0,0-.37-.07.28.28,0,0,0-.08.35,23.44,23.44,0,0,1,3.53,12.43A.27.27,0,0,0,547.92,36.8Z"/><circle class="cls-9" cx="523.78" cy="100.64" r="5.76"/><path class="cls-13" d="M195.66,259.42l-13.11,10.51c-3.64,2.92-1.72,9.16,2.82,9.14L401,277.8,342.61,243H241.81A73.72,73.72,0,0,0,195.66,259.42Z"/><path class="cls-14" d="M516.79,353.2c-.19-1.77-.38-3.54-.58-5.29-2-18-11.17-34.14-25.14-44.19L490,303a117.48,117.48,0,0,0-56.29-21.68L401,277.82l-215.6,1.27c-4.54,0-6.45-6.22-2.82-9.14l13.11-10.51A73.63,73.63,0,0,1,241.81,243h100.8l-.76-.34a46.38,46.38,0,0,0-19.12-4.13H227.79a53.77,53.77,0,0,0-17,2.76l-71.39,28.51a19.56,19.56,0,0,0-9.09,6.41l-14.75,18.47a22.21,22.21,0,0,0-4.76,13.82v30.1c0,8,26.12,35.18,26.12,35.18a19,19,0,0,0,9.17,2.38H466.83l34.07-2.4C510.65,373,517.91,363.68,516.79,353.2Z"/><path class="cls-15" d="M515.66,366.83h-1a3.74,3.74,0,0,1-3.59-3.87V343.47a3.75,3.75,0,0,1,3.59-3.88h0a3.74,3.74,0,0,1,3.59,3.66l1,19.49A3.76,3.76,0,0,1,515.66,366.83Z"/><path class="cls-15" d="M503,335.85h10.7a61.62,61.62,0,0,0-22.64-32.13L490,303c-1.11-.8-2.24-1.58-3.38-2.34,2.19,8.22,4.88,19.5,6.65,27.06A10.23,10.23,0,0,0,503,335.85Z"/><path class="cls-15" d="M139.4,292V269.76a19.51,19.51,0,0,0-9.09,6.42l-14.75,18.46A22,22,0,0,0,111,306l20.13-3.41A10.47,10.47,0,0,0,139.4,292Z"/><path class="cls-15" d="M365.55,276.82l-7.6-7.95a22.53,22.53,0,0,0-11.45-6.51l-15-3.26c-4.11-.89-8,2.22-8.5,6.72l-.11,1.06c-.45,4.58,2.9,8.57,7.17,8.52l19.32-.24a6.7,6.7,0,0,1,6.21,4.36l.35.89a3,3,0,0,0,2.75,1.95h4.75C366.15,282.36,367.48,278.84,365.55,276.82Z"/><path class="cls-15" d="M287.88,291.21h33.06a4,4,0,0,1,3.5,5.38c-1.51,4.41-5.11,10.05-13.67,10.7-7.7.59-17.4-4.11-24.73-8.58C282.71,296.68,284.06,291.21,287.88,291.21Z"/><circle class="cls-5" cx="190.54" cy="368.17" r="43.64" transform="translate(-204.52 242.57) rotate(-45)"/><circle class="cls-16" cx="190.54" cy="368.17" r="35.44"/><circle class="cls-5" cx="447.94" cy="368.17" r="43.64"/><circle class="cls-16" cx="447.93" cy="368.17" r="35.44" transform="translate(-106.79 199.44) rotate(-22.5)"/><path class="cls-17" d="M476.85,381a.69.69,0,0,1-.24-.05.62.62,0,0,1-.32-.8,30.79,30.79,0,0,0-43.37-38.84.61.61,0,0,1-.59-1.06,32,32,0,0,1,45.09,40.37A.62.62,0,0,1,476.85,381Z"/><path class="cls-17" d="M220.31,381a.69.69,0,0,1-.24-.05.61.61,0,0,1-.32-.79h0a30.78,30.78,0,0,0-43.38-38.84.6.6,0,0,1-.81-.27.61.61,0,0,1,.22-.79,32,32,0,0,1,45.09,40.37A.62.62,0,0,1,220.31,381Z"/><path class="cls-18" d="M243.35,354.71a.62.62,0,0,1-.6-.5c-3.88-20.38-15.5-33.36-34.53-38.56a72.44,72.44,0,0,0-27.69-1.71.6.6,0,0,1-.2-1.19,73.52,73.52,0,0,1,28.17,1.71C221.93,318.13,239,328,243.94,354a.6.6,0,0,1-.48.71Z"/><path class="cls-18" d="M394.63,361.36a.6.6,0,0,1-.6-.59c-.51-16.08,3.79-28.68,12.8-37.44,14.86-14.47,37.66-13.3,37.89-13.3a.62.62,0,0,1,.61.61.61.61,0,0,1-.61.61h-.07c-.22,0-22.51-1.14-37,13-8.73,8.51-12.91,20.8-12.43,36.53a.6.6,0,0,1-.59.62Z"/><path class="cls-17" d="M186.75,274.22a.6.6,0,0,1-.62-.59.58.58,0,0,1,.32-.55l29.24-16.64A57.57,57.57,0,0,1,243,249l33.54-.61a.62.62,0,0,1,.61.6.6.6,0,0,1-.59.62h0l-33.54.61a56.19,56.19,0,0,0-26.75,7.34l-29.25,16.63A.61.61,0,0,1,186.75,274.22Z"/><path class="cls-19" d="M20.89,241.48a31,31,0,0,1-1.35-16.64A48.35,48.35,0,0,1,.1,217.08C-.58,227,2.05,238,11.2,248.86h0A81.7,81.7,0,0,0,29.48,264.5l2.31,4.95,7-8.66S25.85,254.66,20.89,241.48Z"/><path class="cls-19" d="M118.87,198.27A35.55,35.55,0,0,1,100,196.54a35.76,35.76,0,0,1-.64,3.7,72,72,0,0,1-5.2,15.53c10.7,1.58,20.36-1.52,27.56-5.22A26.16,26.16,0,0,0,118.87,198.27Z"/><path class="cls-5" d="M100,196.54c-9.28-3.44-16.5-10-22.43-14.69-12.49-9.84-22-4.76-22-4.76l13.61,25.74c8.5,8,17,11.77,25,12.94a72,72,0,0,0,5.19-15.53A33.24,33.24,0,0,0,100,196.54Z"/><path class="cls-20" d="M73.94,365.43l-1.42,7.33c-2.43,12.6,2.48,24.13,11,25.77l10.08,2c8.5,1.64,17.35-7.24,19.78-19.83l1.41-7.34c.1-.49.18-1,.25-1.46l32.6-219.37-22-4.24L74.24,364C74.14,364.45,74,364.94,73.94,365.43Zm10.33,1.39c1.83-9.48,7.88-16.28,13.51-15.2s8.72,9.66,6.89,19.14S96.8,387,91.16,386s-8.72-9.66-6.89-19.14Z"/><path class="cls-17" d="M128.89,71.75l-8.22,42.58a10,10,0,0,0,2.32,8.48l10.48,11.86a10,10,0,0,0,11.92,2.3l14.15-7.11a9.93,9.93,0,0,0,5.3-7l8.22-42.58A7.65,7.65,0,0,1,186.57,77a57.23,57.23,0,0,1,10.68,45.9c-5.91,30.62-33.85,47.08-63.31,41.39s-49.27-31.35-43.35-62a57.24,57.24,0,0,1,27-38.63A7.66,7.66,0,0,1,128.89,71.75Z"/><path class="cls-21" d="M132.9,72.53l-8.21,42.57a10,10,0,0,0,2.31,8.48l10.48,11.86a10,10,0,0,0,11.93,2.3l14.14-7.1a10,10,0,0,0,5.3-7l8.22-42.58a7.65,7.65,0,0,1,13.52-3.31,57.26,57.26,0,0,1,10.67,45.9c-5.91,30.62-33.85,47.07-63.3,41.39s-49.27-31.36-43.36-62a57.24,57.24,0,0,1,27-38.63A7.65,7.65,0,0,1,132.9,72.53Z"/><path class="cls-21" d="M77.14,366l-1.42,7.34c-2.43,12.59,2.48,24.13,11,25.77l10.09,2c8.49,1.64,17.34-7.25,19.77-19.83l1.42-7.35c.09-.48.18-1,.25-1.46L150.82,153.1l-22-4.25L77.46,364.59C77.34,365.07,77.23,365.56,77.14,366Zm10.33,1.4c1.83-9.48,7.87-16.28,13.51-15.2s8.72,9.66,6.89,19.14S100,387.66,94.36,386.57,85.64,376.92,87.47,367.44Z"/><path class="cls-19" d="M146.43,195.39a4.61,4.61,0,0,0-1.08-3.83c-1.76-2.05-4.82-4.85-7-3-3.3,2.82.32,12.44.32,12.44l3.66,5.58.05,3.57C144.32,207.86,145.5,202.16,146.43,195.39Z"/><path class="cls-22" d="M62.07,402.73a1.44,1.44,0,0,0,0-.46c-2.48-9.11-14-14.59-14-14.59l-4.53.44c-2.46,8.12-2,13.05-1.57,15.25a.61.61,0,0,0,0,.18A106.72,106.72,0,0,0,62.07,402.73Z"/><path class="cls-23" d="M41.94,403.56A2,2,0,0,0,43.4,405c5.35,1,13.8,0,17.34-.58a1.64,1.64,0,0,0,1.34-1.67A108.52,108.52,0,0,1,41.94,403.56Z"/><path class="cls-24" d="M41.5,381.4l2.1,9.22a1.5,1.5,0,0,0,1.31,1.21,12.37,12.37,0,0,0,3-.1,1.91,1.91,0,0,0,1.47-2.26h0l-1.48-8.19Z"/><path class="cls-25" d="M81.75,402.71c-5,0-7.62-.59-9-1.11,0,.5,0,1,0,1.53a1,1,0,0,0,1,1l27.52-.69a1.26,1.26,0,0,0,1-1.85C98.68,401.94,89.5,402.78,81.75,402.71Z"/><path class="cls-26" d="M102.28,401.57a2.12,2.12,0,0,0-.11-.21c-2.49-3.35-8.81-10-21.1-12.7l-5.88-.07s-2.52,4.59-2.41,13c1.37.52,4,1.06,9,1.11C89.5,402.78,98.68,401.94,102.28,401.57Z"/><path class="cls-27" d="M73.94,379.71c.07.44,1,7.07,1.37,9.65a1.27,1.27,0,0,0,1.1,1.13,13.29,13.29,0,0,0,4-.14,1.73,1.73,0,0,0,1.28-1.76l-.2-10.44Z"/><path class="cls-14" d="M66.41,254.78s16.31,67.73,17.33,135.43c0,1.23-9.42,2.32-9.64,1.19-2.2-11.61-16.73-87.18-23.42-97.7,0,0,.15,66.6,2.08,96.87.05.76-8.51,3.23-10.3,1.3,0,0-12.07-73.71-12.56-120,0-2.4,4.27-17.12,4.27-17.12Z"/><path class="cls-5" d="M78.47,182.74c0-.24-.06-.54-.11-.91-17.85-12.37-44.24-5.44-54.47-4a13.74,13.74,0,0,0-8.56,4.79C10.11,189,1.16,201.79.1,217.08a48.35,48.35,0,0,0,19.44,7.76,45,45,0,0,1,3.39-10.62,23.26,23.26,0,0,0,.72,2.6c7.69,22.84,11.69,35.89,11.76,40.29,0,.6,35.22-.86,29-1C61.79,256,76.53,204,84.23,194.77,84.69,194.2,77.48,181.45,78.47,182.74Z"/><path class="cls-19" d="M40,159.1l-1.49,18.83s10.64,3,18.23-2.59l-5.73-17Z"/><path class="cls-19" d="M51.91,137.44c.25.23,11.13,20.62,11.13,20.62l-11.78,6L38.08,146.22S47.57,133.5,51.91,137.44Z"/><path class="cls-5" d="M47.94,141.8c-2.64.39-4,3.3-4.59,4.83a1.91,1.91,0,0,0,.17,1.66l6.12,9.78a1.85,1.85,0,0,0,.34.4c.72.64,3.17,2.51,5-.13,1.55-2.24,3-4.29,4.58-5.13a1.89,1.89,0,0,1,2.57.77v0a70.79,70.79,0,0,1,4.24,9.55,1.88,1.88,0,0,1-1.06,2.33A51.93,51.93,0,0,1,54,169.42a1.88,1.88,0,0,1-1.8-.73c-1.87-2.45-7.12-9.31-8.91-11s-4.63-.92-6-.5a2,2,0,0,1-1.52-.17c-1.37-.8-3.82-2.81-1.7-6.33a1.9,1.9,0,0,0-.63-2.57c-1.55-1-3.24-2.83-1.71-5.92,1.92-3.9,7.37-3.53,10.43-6.4,1.51-1.42,3-3,5-3.66a3.88,3.88,0,0,1,1.31-.23c1.92,0,4.84,3.21,5,5.14C53.59,139.73,50.25,141.46,47.94,141.8Z"/><path class="cls-28" d="M45.58,161.23s-2.4-6.63-5.33-6.33-5.15,3.26-1.47,6.45C43.36,165.34,45.58,161.23,45.58,161.23Z"/><path class="cls-13" d="M21.93,212.51c-4.05-10.46-2.89-23.2-2.88-23.33l1.07.1c0,.13-1.15,12.63,2.81,22.84Z"/><path class="cls-29" d="M50.13,292.34a.53.53,0,0,1-.53-.39c-1.26-4.5-10.14-9.31-10.23-9.36a.54.54,0,0,1,.51-.94c.38.2,9.37,5.07,10.76,10a.54.54,0,0,1-.38.65h0Z"/><path class="cls-14" d="M24.8,220.86l13.13-19.79a.51.51,0,0,1,.42-.22H62.42a1.12,1.12,0,0,1,1,.55l11.41,19.33a1.6,1.6,0,0,1,.2,1.11c-4.52,13.74-8.9,27.26-8.58,33.84-8.2,6.4-22.62,5.07-32.47,2.12-.5-8.57-4.73-22.08-9.32-36.08A1.2,1.2,0,0,1,24.8,220.86Z"/><path class="cls-14" d="M29.25,177.17l8.83,25.37h5.31l-7.85-26.42a.52.52,0,0,0-.6-.36l-5.53,1.14a.2.2,0,0,0-.16.25Z"/><path class="cls-14" d="M59.49,175.39l-2.16,26.45,4.9.6,4.17-26.36a.33.33,0,0,0-.29-.38h0l-6.28-.58A.32.32,0,0,0,59.49,175.39Z"/><path class="cls-14" d="M58.65,138.74c-10.48-19.8-37.66-1.81-25,14.87C43,147.36,53.65,138.07,58.65,138.74Z"/><path class="cls-30" d="M58,136.61c21.19-1.08,3.74,6.78-15.56,11C47.2,142.48,52,138.68,58,136.61Z"/></g></g></svg>